<?xml version="1.0" encoding="utf-8"?>
<!-- Generator: Adobe Illustrator 26.3.1, SVG Export Plug-In . SVG Version: 6.00 Build 0)  -->
<svg version="1.1" id="Capa_1" xmlns="http://www.w3.org/2000/svg" xmlns:xlink="http://www.w3.org/1999/xlink" x="0px" y="0px"
	 viewBox="0 0 244 306" style="enable-background:new 0 0 244 306;" xml:space="preserve">
<style type="text/css">
	.st0{fill:url(#SVGID_1_);}
	.st1{fill:url(#SVGID_00000100372501189547309620000016552735679195677878_);}
	.st2{fill:url(#SVGID_00000063616727854509488210000009038320770744574346_);}
	.st3{fill:url(#SVGID_00000057150376773098368090000016447330821082077118_);}
	.st4{fill:url(#SVGID_00000064355206027399923630000016070428211163738795_);}
	.st5{fill:url(#SVGID_00000087375419345021610370000001286246404294587794_);}
	.st6{fill:url(#SVGID_00000127043084882339593560000006953313145930094261_);}
	.st7{fill:url(#SVGID_00000021835278110406544580000008093913434411786936_);}
	.st8{opacity:0.51;fill:url(#SVGID_00000169524648720435732260000010193231748219773612_);enable-background:new    ;}
	.st9{fill:url(#SVGID_00000090263384103427876600000010120703470972633265_);}
	.st10{opacity:0.59;fill:#FFFFA5;enable-background:new    ;}
	.st11{fill:url(#SVGID_00000091716766323192951370000016885106480956389772_);}
	.st12{fill:url(#SVGID_00000159437314912177738980000013523686120104632495_);}
	.st13{fill:url(#SVGID_00000124131133098458544800000016353220739418030477_);}
	.st14{fill:url(#SVGID_00000041996438427130798620000003115809145513889194_);}
	.st15{fill:url(#SVGID_00000182494553034570056550000004819175965903859330_);}
	.st16{fill:url(#SVGID_00000172409722806295408350000017770011473531677348_);}
	.st17{fill:url(#SVGID_00000101818608562869365260000006194211437175397011_);}
	.st18{opacity:0.51;fill:url(#SVGID_00000151539350028517929620000006270942928909518263_);enable-background:new    ;}
	.st19{fill:url(#SVGID_00000132086574825069451650000013103331291513810582_);}
	.st20{opacity:0.51;fill:url(#SVGID_00000162329028457147811220000016404891917980916398_);enable-background:new    ;}
	.st21{fill:url(#SVGID_00000168814401402246974430000002721847591155902390_);}
	.st22{opacity:0.51;fill:url(#SVGID_00000036942413850055371980000007186117194973084559_);enable-background:new    ;}
	.st23{fill:url(#SVGID_00000076584538734890278990000011504144566127831429_);}
	.st24{fill:url(#SVGID_00000092423549276664510610000011209861117475206537_);}
	.st25{opacity:0.51;fill:url(#SVGID_00000079481227258799885920000005957208702441050551_);enable-background:new    ;}
	.st26{opacity:0.51;fill:url(#SVGID_00000084493060167544095730000006448980286173765792_);enable-background:new    ;}
	.st27{fill:url(#SVGID_00000133526097928261657970000011346998450632263870_);}
	.st28{fill:#2F1309;}
	.st29{fill:url(#SVGID_00000018219486879962310250000004209487341497952896_);}
	.st30{fill:url(#SVGID_00000145030608117012914690000005139233909482392452_);}
	.st31{fill:url(#SVGID_00000046337913423670087350000008231507432871973264_);}
	.st32{fill:url(#SVGID_00000018234476670696005500000005128503546469282972_);}
	.st33{fill:#FFFFFF;}
	.st34{fill:url(#SVGID_00000151536094075452653070000005630430810209980800_);}
	.st35{opacity:0.3;fill:url(#SVGID_00000003079888484742557700000014879894716900386186_);enable-background:new    ;}
	.st36{opacity:0.3;fill:url(#SVGID_00000154416654462268461130000007323464761605600388_);enable-background:new    ;}
	.st37{opacity:0.69;fill:#FFFFFF;enable-background:new    ;}
</style>
<radialGradient id="SVGID_1_" cx="627.1924" cy="-857.6877" r="1" gradientTransform="matrix(0.1946 -1.319700e-02 -1.319700e-02 -0.1946 -120.8807 1.5141)" gradientUnits="userSpaceOnUse">
	<stop  offset="0" style="stop-color:#A3300C"/>
	<stop  offset="0.45" style="stop-color:#FF4918"/>
	<stop  offset="0.51" style="stop-color:#FF4E19"/>
	<stop  offset="0.59" style="stop-color:#FF5E1E"/>
	<stop  offset="0.68" style="stop-color:#FF7926"/>
	<stop  offset="0.77" style="stop-color:#FF9F31"/>
	<stop  offset="0.88" style="stop-color:#FFCE3F"/>
	<stop  offset="0.97" style="stop-color:#FFFF4E"/>
</radialGradient>
<path class="st0" d="M12.6,160.4C12.6,160.4,12.6,160.4,12.6,160.4c-0.1-0.3-0.2-0.5-0.2-0.5c0,0,0,0,0,0
	C12.5,160.1,12.5,160.2,12.6,160.4L12.6,160.4z"/>
<radialGradient id="SVGID_00000173160578486034627590000004628774427344004532_" cx="-173.9957" cy="572.0975" r="1" gradientTransform="matrix(155.431 -10.5407 -10.5397 -155.416 33069.3242 87274.5156)" gradientUnits="userSpaceOnUse">
	<stop  offset="0.24" style="stop-color:#FFD569"/>
	<stop  offset="0.42" style="stop-color:#FFB652"/>
	<stop  offset="0.7" style="stop-color:#FF8932"/>
	<stop  offset="0.85" style="stop-color:#FF7826"/>
</radialGradient>
<path style="fill:url(#SVGID_00000173160578486034627590000004628774427344004532_);" d="M106,279.5c-9.9,3.4-21.2,5.3-31.7,4.6
	c-14.8-1-35.8-15.4-41-29.4c-4.9-13.2-4.3-26.9-5-40.7c-0.8-15.3-4.2-29.9-12-43.2c-3.4-5.8-6.8-11.8-7.7-18.5c-0.4,0-0.8,0.2-1,0.7
	c0,2.7,0.4,5.4,1.9,9.5c4,10.8,7.1,11.9,10.4,28.7c5.4,27.1-6,55.3,12.4,79.9c6.4,8.5,16.3,16.2,27.1,20.2c12.1,4.4,19.9,3.6,29.7,3
	c4-0.3,11.3,0.4,12.9-4.7C103,286.1,107.1,282.9,106,279.5L106,279.5z"/>
<radialGradient id="SVGID_00000146459048281252853120000001480754790419100579_" cx="1899.0054" cy="-3127.366" r="1" gradientTransform="matrix(7.526821e-02 -5.104573e-03 -5.104573e-03 -7.526821e-02 -146.8912 -67.1286)" gradientUnits="userSpaceOnUse">
	<stop  offset="0" style="stop-color:#A3300C"/>
	<stop  offset="0.45" style="stop-color:#FF4918"/>
	<stop  offset="0.51" style="stop-color:#FF4E19"/>
	<stop  offset="0.59" style="stop-color:#FF5E1E"/>
	<stop  offset="0.68" style="stop-color:#FF7926"/>
	<stop  offset="0.77" style="stop-color:#FF9F31"/>
	<stop  offset="0.88" style="stop-color:#FFCE3F"/>
	<stop  offset="0.97" style="stop-color:#FFFF4E"/>
</radialGradient>
<path style="fill:url(#SVGID_00000146459048281252853120000001480754790419100579_);" d="M12,158.7c0-0.1,0-0.1,0-0.2
	C12,158.5,12,158.6,12,158.7z"/>
<radialGradient id="SVGID_00000021087991848524876820000009964875141123731077_" cx="-172.1343" cy="568.7755" r="1" gradientTransform="matrix(54.4753 -3.6943 -3.6939 -54.4701 11491.9873 30523.5527)" gradientUnits="userSpaceOnUse">
	<stop  offset="0.15" style="stop-color:#FFD468"/>
	<stop  offset="0.31" style="stop-color:#FF8C3D"/>
	<stop  offset="0.42" style="stop-color:#FF5F23"/>
	<stop  offset="0.47" style="stop-color:#FF4E19"/>
	<stop  offset="0.75" style="stop-color:#431909"/>
</radialGradient>
<path style="fill:url(#SVGID_00000021087991848524876820000009964875141123731077_);" d="M11.5,169.6c1.4,1.2,2.7,2.5,3.7,4.2
	c0.6-2.1,0.2-4.2-0.1-6.2c-0.3-2.3-0.4-4.7-1-7c-0.8-2.7-2.7-4.9-4.3-7.2c-2.6-3.8-4.4-8.2-5.3-12.7c-1,6.3-5.9,10.5-4.2,17.4
	C1.8,164.2,7.3,166.2,11.5,169.6L11.5,169.6z"/>
<radialGradient id="SVGID_00000145764247632099829020000005212646333330559372_" cx="1848.5121" cy="-2524.9741" r="1" gradientTransform="matrix(8.648330e-02 0 0 -8.648330e-02 -135.5549 24.9619)" gradientUnits="userSpaceOnUse">
	<stop  offset="0" style="stop-color:#A3300C"/>
	<stop  offset="0.45" style="stop-color:#FF4918"/>
	<stop  offset="0.51" style="stop-color:#FF4E19"/>
	<stop  offset="0.59" style="stop-color:#FF5E1E"/>
	<stop  offset="0.68" style="stop-color:#FF7926"/>
	<stop  offset="0.77" style="stop-color:#FF9F31"/>
	<stop  offset="0.88" style="stop-color:#FFCE3F"/>
	<stop  offset="0.97" style="stop-color:#FFFF4E"/>
</radialGradient>
<path style="fill:url(#SVGID_00000145764247632099829020000005212646333330559372_);" d="M24.3,243.2
	C24.3,243.6,24.3,243.4,24.3,243.2L24.3,243.2z"/>
<radialGradient id="SVGID_00000154422575409704075790000012125344248144838811_" cx="-173.9133" cy="572.2256" r="1" gradientTransform="matrix(161.036 0 0 -161.02 28233.5938 92376.4922)" gradientUnits="userSpaceOnUse">
	<stop  offset="0.24" style="stop-color:#FFD569"/>
	<stop  offset="0.42" style="stop-color:#FFB652"/>
	<stop  offset="0.7" style="stop-color:#FF8932"/>
	<stop  offset="0.85" style="stop-color:#FF7826"/>
</radialGradient>
<path style="fill:url(#SVGID_00000154422575409704075790000012125344248144838811_);" d="M163.9,226.3c5-4.2,12-4.9,18.5-5.3
	c5-0.4,7.9,0.4,8.7,5.1c1.7,10.9-3.8,21.5-9.6,30.9c-7.6,12.5-15.9,23.6-24.8,35.3c0.4-0.6,2,1.3,2.1,1.6c1.4,3.3-2.5,4.5-5,3.7
	c-0.1,0-0.3-0.1-0.4-0.1c-0.2,0-0.4,0.1-0.6,0.2c-3.1,1.7-6.9,1-9.6-1.2c-2.2-1.8,0-5.5,0.7-7.8c1-3.1,2-6.2,3-9.3
	c2.8-8.6,5.5-17.2,8.3-25.8c2.4-7.4,4.7-14.8,7.1-22.2C162.8,229.7,163.3,228,163.9,226.3L163.9,226.3z"/>
<radialGradient id="SVGID_00000115480298282973703280000014955853246443057054_" cx="-173.8876" cy="572.1862" r="1" gradientTransform="matrix(157.313 0 0 -157.298 27548.3379 90223.3672)" gradientUnits="userSpaceOnUse">
	<stop  offset="0.24" style="stop-color:#FFD569"/>
	<stop  offset="0.42" style="stop-color:#FFB652"/>
	<stop  offset="0.7" style="stop-color:#FF8932"/>
	<stop  offset="0.85" style="stop-color:#FF7826"/>
</radialGradient>
<path style="fill:url(#SVGID_00000115480298282973703280000014955853246443057054_);" d="M74.8,226.3c-5-4.2-12-4.9-18.5-5.3
	c-5-0.4-7.9,0.4-8.7,5.1c-1.7,10.9,3.8,21.5,9.6,30.9c7.6,12.5,15.5,24,24.4,35.7c-0.5-0.7-1.7,0.9-1.9,1.3c-0.6,1-0.6,2.2,0,3.2
	c0.6,0.9,1.6,1.6,2.6,1.8c1.5,0.3,3.3-0.2,3.7-1.7c1.8,1.6,4.6,1.8,7,1.1c1.5-0.4,2.2-1.1,2.5-2.6c0.2-1.2,0.7-2.2,0.5-3.5
	c-0.4-2.9-1.8-5.5-2.7-8.3C93.2,284.1,74.8,226.3,74.8,226.3L74.8,226.3z"/>
<radialGradient id="SVGID_00000016795990664881437460000003087277696415049124_" cx="-174.1862" cy="572.6437" r="1" gradientTransform="matrix(215.051 0 0 -215.03 37629.8594 123390.2734)" gradientUnits="userSpaceOnUse">
	<stop  offset="0.12" style="stop-color:#FFD569"/>
	<stop  offset="0.24" style="stop-color:#FFB652"/>
	<stop  offset="0.44" style="stop-color:#FF8932"/>
	<stop  offset="0.53" style="stop-color:#FF7826"/>
</radialGradient>
<path style="fill:url(#SVGID_00000016795990664881437460000003087277696415049124_);" d="M162.2,182.5c-1.9-0.8-3.8-1.5-5.9-2.2
	c-1-3.2-1.9-6.3-2.9-9.5c-9.3,4.8-22,0.7-35,1.3c-12.9-0.6-25.7,3.5-35-1.3c-0.9,3.1-1.9,6.3-2.9,9.5c-2,0.7-4,1.5-5.9,2.2
	c-1.8,0.7-3,10.6-3.3,12.5c-0.7,4.3-0.9,8.6-1.1,13c-2.4,43.4,4.3,50.7,14.8,71.6c1.6,3.3,4.2,9,6,12.2c1.3,2.3,0.2,4.7,1.2,7
	c1.3,2.9,4.9,4.3,7.7,2.7c2.5,1.9,6.1,2.1,8.8,0.6c0.2-0.1,2.4,0.6,2.8,0.7c1.1,0.1,2.1,0,3.1-0.3c2.1-0.6,3.3-2.3,5.3-2.9
	c0.4,1.5,2,2.3,3.5,2.6c2.1,0.5,4.4,0.4,6.4-0.5c2.8,1.5,6.4,1.2,8.9-0.8c1.4,0.8,3.2,0.5,4.7-0.1c0.8-0.3,1.6-0.8,2.1-1.4
	c1.1-1.3,0.6-2.8,0.5-4.4c-0.1-1.9-0.1-3.7,0.8-5.3c1.7-3.2,3-6.7,4.7-10c12.9-25.8,20-34,15.9-67
	C166.4,202.4,165.8,192.1,162.2,182.5L162.2,182.5z"/>
<linearGradient id="SVGID_00000145758340588097517140000017352854167427936435_" gradientUnits="userSpaceOnUse" x1="110.1194" y1="176.9871" x2="124.4124" y2="-91.0339" gradientTransform="matrix(1 0 0 -1 0 305.89)">
	<stop  offset="0.25" style="stop-color:#FFFFFF"/>
	<stop  offset="0.32" style="stop-color:#F7F0F0"/>
	<stop  offset="0.46" style="stop-color:#E3C9C9"/>
	<stop  offset="0.64" style="stop-color:#C3898B"/>
	<stop  offset="0.86" style="stop-color:#983337"/>
	<stop  offset="0.98" style="stop-color:#7F0206"/>
</linearGradient>
<path style="opacity:0.51;fill:url(#SVGID_00000145758340588097517140000017352854167427936435_);enable-background:new    ;" d="
	M146.5,294c-0.4,0.8-0.3,1.8-0.5,2.7c-0.9,3.3-7.4,4-7-0.2c-0.2,1.5-0.7,3.3-2.2,4.1c-1,0.5-1.8,0.4-2.8,0.4
	c-3.8-0.1-2.7-2.3-3.4-4.3c-0.2,0.3-0.2,0.7-0.2,1.1c-0.9,6.2-8.2,4.2-9-0.9c-0.1-1,0-1.9,0.2-2.9c0.7-3.8,4.6-2,7.4-2.5
	c4-0.7,9.1-1.2,16.3-0.7c-1.3-0.6-2.9-0.6-4.4-0.6c-2.8,0-5.6-0.4-8.3-0.1c-2.7,0.3-5.8-0.3-8.2-1.4c-4.3-2.1-3.9-10.8-3.9-14.8
	c0.1-6.6,1.2-13.1,2.7-19.5c1.1-4.6,8.5-10.7,13.3-11.2c-7,2.1-15.6,4.2-22.8,2.9c-2.8-0.5-5.1-1.2-8.1-1.2c-2,0-10,1.6-11.4,0.5
	c1.3,1,2.9,1.4,4.5,1.8c5.8,1.5,11.3,4.3,15.8,8.3c-0.7-0.1-1.3-0.2-2-0.3c2.8,6.8,3.7,13.8,4.5,21.1c0.3,2.9,1.4,6.7,0.4,9.6
	c-2.4,7.2-14.8,5.3-20.5,5.1c4.1,0.1,7.9,1.8,11.9,0.9c1.9-0.4,6.2-1.1,7.8,0.3c3.9,3.4-0.1,11.4-5.2,9.1c-1.1-0.5-2-2.2-2.2-3.3
	c-0.1-0.4-0.1-0.8-0.3-1.1c-0.4,1.3,0,2.9-1,3.8c-1.1,1-4,0.8-6,0.1c-0.8-0.3-1-0.5-1.3-1.4c-0.2-0.6-0.4-1.5-0.3-2
	c-0.2,0.6-0.1,1.3-0.2,1.9c-0.4,2.3-4,1.9-5.5,0.9c-1.8-1.2-2.8-4.4-3.3-6.5c-0.2,2.1,0.3,6.3,1.3,8.3c1,1.9,3.1,3,5.1,3.7
	c5.6,1.9,10-0.4,21.9,0.3v0.4c12.4-1.3,16.9,0.9,22.5-1.2c1.7-0.6,3.7-2.1,4.1-4c0.2-0.8,0.1-1.6,0.2-2.4
	C146.5,297.7,147,294.4,146.5,294L146.5,294z"/>
<radialGradient id="SVGID_00000145025402573703432610000008024534711552745606_" cx="-173.8711" cy="572.1609" r="1" gradientTransform="matrix(155.013 0 0 -154.998 27058.8926 88821.9844)" gradientUnits="userSpaceOnUse">
	<stop  offset="0" style="stop-color:#A3300C"/>
	<stop  offset="0.45" style="stop-color:#FF4918"/>
	<stop  offset="0.51" style="stop-color:#FF4E19"/>
	<stop  offset="0.59" style="stop-color:#FF5E1E"/>
	<stop  offset="0.68" style="stop-color:#FF7926"/>
	<stop  offset="0.77" style="stop-color:#FF9F31"/>
	<stop  offset="0.88" style="stop-color:#FFCE3F"/>
	<stop  offset="0.97" style="stop-color:#FFFF4E"/>
</radialGradient>
<path style="fill:url(#SVGID_00000145025402573703432610000008024534711552745606_);" d="M176.4,201.1c-0.8-0.6,25.2-31.1,35.2-51
	c23.9-47.4,4.9-107.2-43.7-128.4c-10.6,12.4-16.2,17.9-24.5,31.9c5.9-14.7,10.6-21.1,17-35.4c-4.4-3.1-11.3-5.9-18.4-7.7
	c-24.2-6.1-53.5-3.6-76.2,8c-83.1,42.3-56.4,143.9,1.8,179.3c14.9,9,29.3,17.3,40.7,30.3c-1.5-1.7,1.3-11.4,1.3-11.4
	s6.1,8.3,8.7,11.1c5.6,6.2,11.2,13,16.8,19.1c7.5-8.5,31-30,37.3-41.7l-12.2-15.5C165.6,193.5,171,197.3,176.4,201.1L176.4,201.1z"
	/>
<path class="st10" d="M111.2,75.4c-2.6-9.5-4.1-19.2-4.7-29c-0.6-10.1-0.1-20.2,1.9-30.1c1.1-5.4,2.6-10.6,4.7-15.7
	c0.1-0.3-0.3-0.9-0.5-0.5c-3.9,9.1-5.9,19-6.6,28.8c-0.8,10.2-0.3,20.4,1.2,30.5c0.8,5.4,1.9,10.7,3.4,16
	C110.8,75.8,111.3,76,111.2,75.4L111.2,75.4z"/>
<path class="st10" d="M130,4.2c-2.9,3.5-5,7.5-6.7,11.7c-1.9,4.7-3.2,9.6-4.1,14.6c-2,10.5-2.6,21.3-1.9,32
	c0.3,5.1,0.9,10.3,2.1,15.3c0.1,0.2,0.4,0.4,0.4,0.1c-2.1-9.5-2.5-19.3-2.1-28.9c0.4-10.5,1.9-21.2,5.5-31.1c1.7-4.8,4-9.4,7.2-13.4
	C130.4,4.3,130.1,4.1,130,4.2L130,4.2z"/>
<path class="st10" d="M145.2,7.6c-2.9,2-5.1,4.9-6.8,7.9c-2,3.4-3.5,7.1-4.8,10.9c-2.8,8.2-5,16.7-6.1,25.3c-0.4,3-0.7,6-0.9,9.1
	c-0.2,3.2-0.4,6.5-0.2,9.7c0,0.2,0.4,0.5,0.4,0.2c0.2-2.8,0.2-5.6,0.3-8.3c0.1-2.8,0.4-5.6,0.7-8.3c0.6-5,1.5-10,2.7-14.9
	c1.8-7.4,4-15,7.6-21.8c1.8-3.5,4.1-7,7.4-9.2C145.7,7.9,145.4,7.5,145.2,7.6L145.2,7.6z"/>
<path class="st10" d="M195.8,200.5c-2.5-9.6-7.6-18.5-14.4-25.8c-6.7-7.2-15.1-12.9-24.3-16.4c-5.2-2-10.6-3.4-16.2-4.1
	c-0.4-0.1-0.1,0.7,0.2,0.7c9.7,1.3,19,4.7,27.3,9.9c8.2,5.2,15.1,12.1,20.2,20.3c2.9,4.8,5.2,9.9,6.7,15.3
	C195.3,200.7,195.9,201,195.8,200.5L195.8,200.5z"/>
<path class="st10" d="M202.5,166.2c-2.1-3.6-4.9-6.8-8.1-9.5c-6.7-5.5-15-8.9-23.1-11.7c-4.6-1.6-9.2-2.9-13.8-4.4
	c-0.3-0.1-0.1,0.5,0.1,0.6c8.1,2.7,16.3,5,24,8.6c7.5,3.4,14.7,8,19.3,14.9c2.8,4.2,4.4,9.1,5.1,14c0,0.2,0.1,0.5,0.3,0.5
	c0.2,0.1,0.3,0,0.3-0.2C206.1,174.5,204.8,170.1,202.5,166.2L202.5,166.2z"/>
<path class="st10" d="M218,158.8c-2.8-8.4-8.8-15.4-15.7-20.7c-7.3-5.5-15.8-9.4-24.7-11.3c-4.7-1-9.6-1.5-14.4-1.2
	c-0.2,0,0,0.5,0.2,0.4c8.7-0.4,17.5,1.6,25.5,5c8.1,3.5,15.7,8.6,21.5,15.4c3.1,3.7,5.6,7.9,7.3,12.4
	C217.7,159.2,218.1,159.2,218,158.8L218,158.8z"/>
<path class="st10" d="M213.1,45.8c-8.8,0.4-17.4,3.3-25.3,7c-8.4,4-16.3,9.3-23,15.9c-3.4,3.4-6.5,7.1-9,11.2
	c-0.1,0.1,0.2,0.4,0.2,0.3c4.6-7.5,11.3-13.6,18.4-18.7c7.6-5.4,16-9.8,24.9-12.5c4.5-1.4,9.2-2.4,13.9-2.6
	C213.5,46.3,213.3,45.8,213.1,45.8L213.1,45.8z"/>
<path class="st10" d="M220.8,65.5c-8.5,2.3-17.1,4.4-25.4,7.4C187.6,75.6,180,79,173,83.6c-4.2,2.8-8.2,6-11.8,9.4
	c-0.1,0.1,0.1,0.3,0.2,0.3c6.4-5.8,13.7-10.7,21.4-14.5c7.6-3.7,15.6-6.4,23.7-8.7c4.8-1.4,9.7-2.7,14.6-4
	C221.3,66,221.1,65.4,220.8,65.5L220.8,65.5z"/>
<radialGradient id="SVGID_00000026883520389111824740000004970477633341004972_" cx="-173.8091" cy="571.4722" r="1" gradientTransform="matrix(117.904 -14.3084 -14.307 -117.8931 28746.0625 65008.75)" gradientUnits="userSpaceOnUse">
	<stop  offset="0" style="stop-color:#A3300C"/>
	<stop  offset="0.45" style="stop-color:#FF4918"/>
	<stop  offset="0.51" style="stop-color:#FF4E19"/>
	<stop  offset="0.59" style="stop-color:#FF5E1E"/>
	<stop  offset="0.68" style="stop-color:#FF7926"/>
	<stop  offset="0.77" style="stop-color:#FF9F31"/>
	<stop  offset="0.88" style="stop-color:#FFCE3F"/>
	<stop  offset="0.97" style="stop-color:#FFFF4E"/>
</radialGradient>
<path style="fill:url(#SVGID_00000026883520389111824740000004970477633341004972_);" d="M57.4,18.6c7.1-5.3,19.3-13.8,28-15.4
	C85,30.6,95.7,52.3,104.6,74.3c0.2,0.4-9.5,6.5-11.8,4.9C90.7,77.8,63.4,32.8,57.4,18.6L57.4,18.6z"/>
<radialGradient id="SVGID_00000103956389642810007830000017827915217699702198_" cx="-174.5253" cy="573.1629" r="1" gradientTransform="matrix(368.638 0 0 -368.603 64489.8477 211376.5)" gradientUnits="userSpaceOnUse">
	<stop  offset="0" style="stop-color:#A3300C"/>
	<stop  offset="0.45" style="stop-color:#FF4918"/>
	<stop  offset="0.51" style="stop-color:#FF4E19"/>
	<stop  offset="0.59" style="stop-color:#FF5E1E"/>
	<stop  offset="0.68" style="stop-color:#FF7926"/>
	<stop  offset="0.77" style="stop-color:#FF9F31"/>
	<stop  offset="0.88" style="stop-color:#FFCE3F"/>
	<stop  offset="0.97" style="stop-color:#FFFF4E"/>
</radialGradient>
<path style="fill:url(#SVGID_00000103956389642810007830000017827915217699702198_);" d="M0,146.5c2.2,7.2,3.5,14.7,3.9,22.2
	c-0.3-6.1,31.9-20.2,37.1-22.5c13.3-5.9,28.2-7.4,41.2-12.9C77.4,114,10.8,140.8,0,146.5z"/>
<radialGradient id="SVGID_00000160168339388621660370000006627979737889543822_" cx="-174.2514" cy="572.7435" r="1" gradientTransform="matrix(233.772 0 0 -233.75 40851.5117 134017.7812)" gradientUnits="userSpaceOnUse">
	<stop  offset="0" style="stop-color:#A3300C"/>
	<stop  offset="0.45" style="stop-color:#FF4918"/>
	<stop  offset="0.51" style="stop-color:#FF4E19"/>
	<stop  offset="0.59" style="stop-color:#FF5E1E"/>
	<stop  offset="0.68" style="stop-color:#FF7926"/>
	<stop  offset="0.77" style="stop-color:#FF9F31"/>
	<stop  offset="0.88" style="stop-color:#FFCE3F"/>
	<stop  offset="0.97" style="stop-color:#FFFF4E"/>
</radialGradient>
<path style="fill:url(#SVGID_00000160168339388621660370000006627979737889543822_);" d="M76.8,177.1c5.6-8.9,11.6-17.5,17.7-26
	c-0.9-0.1-1.9-0.2-3-0.1c-8.6,0.6-19.3,12.9-24.6,18.8c-10.4,11.4-18.3,24.8-25.2,38.6c5.4,1.6,10.7,3.6,15.8,6
	C62.6,201.4,69.4,189,76.8,177.1L76.8,177.1z"/>
<radialGradient id="SVGID_00000078029998973635682700000010116207469354223532_" cx="-174.2514" cy="572.7435" r="1" gradientTransform="matrix(233.772 0 0 -233.75 40851.5117 134017.7812)" gradientUnits="userSpaceOnUse">
	<stop  offset="0" style="stop-color:#A3300C"/>
	<stop  offset="0.45" style="stop-color:#FF4918"/>
	<stop  offset="0.51" style="stop-color:#FF4E19"/>
	<stop  offset="0.59" style="stop-color:#FF5E1E"/>
	<stop  offset="0.68" style="stop-color:#FF7926"/>
	<stop  offset="0.77" style="stop-color:#FF9F31"/>
	<stop  offset="0.88" style="stop-color:#FFCE3F"/>
	<stop  offset="0.97" style="stop-color:#FFFF4E"/>
</radialGradient>
<path style="fill:url(#SVGID_00000078029998973635682700000010116207469354223532_);" d="M93.4,164.4c-8.3,12-16.2,24.4-22.8,37.4
	c-1.6,3.3-3.2,6.5-4.6,9.9c-0.2,0.4-0.3,0.8-0.5,1.2l0,0c-0.1,0.2-0.2,0.4-0.3,0.6c-0.3,0.8-0.7,1.6-1,2.4c-0.2,0.5-0.4,1.1-0.6,1.6
	c8.3,4.6,16.1,10.4,22.9,17.1c-3.8-3.8,2.6-28.9,3.7-33.9c2.5-12.2,8.8-23.5,11.4-35.4c0.8-3.9,0.6-7.9-1.2-10.7
	C98,157.9,95.7,161.1,93.4,164.4L93.4,164.4z"/>
<radialGradient id="SVGID_00000122707276274837186820000003348031811873478528_" cx="-173.443" cy="571.5054" r="1" gradientTransform="matrix(112.397 0 0 -112.386 19621.4492 64358.3242)" gradientUnits="userSpaceOnUse">
	<stop  offset="0" style="stop-color:#A3300C"/>
	<stop  offset="0.13" style="stop-color:#C93A10"/>
	<stop  offset="0.26" style="stop-color:#E64214"/>
	<stop  offset="0.37" style="stop-color:#F84717"/>
	<stop  offset="0.45" style="stop-color:#FF4918"/>
	<stop  offset="0.51" style="stop-color:#FF4E19"/>
	<stop  offset="0.59" style="stop-color:#FF5E1E"/>
	<stop  offset="0.68" style="stop-color:#FF7926"/>
	<stop  offset="0.77" style="stop-color:#FF9F31"/>
	<stop  offset="0.88" style="stop-color:#FFCE3F"/>
	<stop  offset="0.97" style="stop-color:#FFFF4E"/>
</radialGradient>
<path style="fill:url(#SVGID_00000122707276274837186820000003348031811873478528_);" d="M243.6,80.5c0,11.6,0.1,23.2,0.1,34.8
	c-4.9-4.7-11.8-6.7-18.5-8.2c-12.7-2.8-25.6-4.5-38.6-5c-7.6-0.3-30.5,4.2-35.1-0.6C158.4,91.2,243.6,72.8,243.6,80.5L243.6,80.5z"
	/>
<radialGradient id="SVGID_00000147177969353190451970000005871028891094076056_" cx="-173.8519" cy="572.1316" r="1" gradientTransform="matrix(152.426 0 0 -152.411 26553.1504 87287.5781)" gradientUnits="userSpaceOnUse">
	<stop  offset="0" style="stop-color:#A3300C"/>
	<stop  offset="0.45" style="stop-color:#FF4918"/>
	<stop  offset="0.51" style="stop-color:#FF4E19"/>
	<stop  offset="0.59" style="stop-color:#FF5E1E"/>
	<stop  offset="0.68" style="stop-color:#FF7926"/>
	<stop  offset="0.77" style="stop-color:#FF9F31"/>
	<stop  offset="0.88" style="stop-color:#FFCE3F"/>
	<stop  offset="0.97" style="stop-color:#FFFF4E"/>
</radialGradient>
<path style="fill:url(#SVGID_00000147177969353190451970000005871028891094076056_);" d="M174.3,9.7c13,6.1,17.4,11,29.4,19.1
	c-24.2-2.2-63.5,58-68.4,56.9c-8.2-1.8,5.9-27.4,8.1-32C145.5,49.2,170,7.7,174.3,9.7L174.3,9.7z"/>
<radialGradient id="SVGID_00000098221643603969213350000016681121019199670694_" cx="-174.2003" cy="572.6652" r="1" gradientTransform="matrix(218.825 0 0 -218.804 38233.9023 125397.9766)" gradientUnits="userSpaceOnUse">
	<stop  offset="0" style="stop-color:#A3300C"/>
	<stop  offset="0.45" style="stop-color:#FF4918"/>
	<stop  offset="0.51" style="stop-color:#FF4E19"/>
	<stop  offset="0.59" style="stop-color:#FF5E1E"/>
	<stop  offset="0.68" style="stop-color:#FF7926"/>
	<stop  offset="0.77" style="stop-color:#FF9F31"/>
	<stop  offset="0.88" style="stop-color:#FFCE3F"/>
	<stop  offset="0.97" style="stop-color:#FFFF4E"/>
</radialGradient>
<path style="fill:url(#SVGID_00000098221643603969213350000016681121019199670694_);" d="M2.2,88.8c0,6.2,0.4,14.5,0.6,15.6
	c12.7-1.8,23.6-6,36.9-6c14.7,0,29.5,2,43.6,6.2c-1-3-3.8-5.1-6.5-6.8C54,83.5,29.7,80.2,3,82C2.5,82.1,2.3,85,2.2,88.8L2.2,88.8z"
	/>
<linearGradient id="SVGID_00000104694335767668489500000001715242170070415232_" gradientUnits="userSpaceOnUse" x1="151.3028" y1="259.9236" x2="155.5268" y2="233.0388" gradientTransform="matrix(1 0 0 -1 0 305.89)">
	<stop  offset="0.43" style="stop-color:#FFFFFF"/>
	<stop  offset="0.64" style="stop-color:#C3A99E"/>
	<stop  offset="0.8" style="stop-color:#986A57"/>
	<stop  offset="0.92" style="stop-color:#7D422B"/>
	<stop  offset="0.98" style="stop-color:#73341B"/>
</linearGradient>
<path style="opacity:0.51;fill:url(#SVGID_00000104694335767668489500000001715242170070415232_);enable-background:new    ;" d="
	M157.2,58.9c-6.6,0.5-13.4,4.5-14.4,11.6c-1.2,9.7,16.6,3.1,21-1c1-1,1.9-2.1,2.4-3.4c0.5-1.3,0.5-2.8-0.1-4
	C164.6,59.3,161.9,58.5,157.2,58.9L157.2,58.9z"/>
<radialGradient id="SVGID_00000034802045185438386660000004761730635742804388_" cx="-171.692" cy="568.8235" r="1" gradientTransform="matrix(52.902 0 0 -52.897 9264.249 30151.0508)" gradientUnits="userSpaceOnUse">
	<stop  offset="0.24" style="stop-color:#FFD569"/>
	<stop  offset="0.42" style="stop-color:#FFB652"/>
	<stop  offset="0.7" style="stop-color:#FF8932"/>
	<stop  offset="0.85" style="stop-color:#FF7826"/>
</radialGradient>
<path style="fill:url(#SVGID_00000034802045185438386660000004761730635742804388_);" d="M145.5,68.8c-0.1-0.1,4-10.1,14.3-10
	c14,0.2,15,19.5,3.5,23.7C157.2,84.8,149.3,72.4,145.5,68.8L145.5,68.8z"/>
<linearGradient id="SVGID_00000119114925379310814120000009694626728576621228_" gradientUnits="userSpaceOnUse" x1="151.7616" y1="227.8851" x2="167.5946" y2="241.8551" gradientTransform="matrix(1 0 0 -1 0 305.89)">
	<stop  offset="0.2" style="stop-color:#FFFFFF"/>
	<stop  offset="0.49" style="stop-color:#C3A99E"/>
	<stop  offset="0.73" style="stop-color:#986A57"/>
	<stop  offset="0.9" style="stop-color:#7D422B"/>
	<stop  offset="0.98" style="stop-color:#73341B"/>
</linearGradient>
<path style="opacity:0.51;fill:url(#SVGID_00000119114925379310814120000009694626728576621228_);enable-background:new    ;" d="
	M150.8,70.7c0,0,2.3-5.8,8.2-5.7c8,0.1,8.6,11.2,2,13.6C157.5,79.9,153,72.8,150.8,70.7L150.8,70.7z"/>
<radialGradient id="SVGID_00000160903062349489769680000004975240946199975553_" cx="-171.7592" cy="568.9265" r="1" gradientTransform="matrix(53.9987 0 0 -53.9936 9373.3848 30775.2422)" gradientUnits="userSpaceOnUse">
	<stop  offset="0.24" style="stop-color:#FFD569"/>
	<stop  offset="0.42" style="stop-color:#FFB652"/>
	<stop  offset="0.7" style="stop-color:#FF8932"/>
	<stop  offset="0.85" style="stop-color:#FF7826"/>
</radialGradient>
<path style="fill:url(#SVGID_00000160903062349489769680000004975240946199975553_);" d="M91.1,69.6c-0.8-6.2-12.4-15.1-22.2-6.3
	c-7.3,6.5-4.3,24,8.2,21.9C90.2,83.2,88,75.2,89.5,70.7C90.1,69.2,91.2,70.4,91.1,69.6L91.1,69.6z"/>
<linearGradient id="SVGID_00000000923415199357392380000014615662600535399312_" gradientUnits="userSpaceOnUse" x1="59.8589" y1="228.2113" x2="98.9765" y2="238.1871" gradientTransform="matrix(1 0 0 -1 0 305.89)">
	<stop  offset="0.2" style="stop-color:#FFFFFF"/>
	<stop  offset="0.49" style="stop-color:#C3A99E"/>
	<stop  offset="0.73" style="stop-color:#986A57"/>
	<stop  offset="0.9" style="stop-color:#7D422B"/>
	<stop  offset="0.98" style="stop-color:#73341B"/>
</linearGradient>
<path style="opacity:0.51;fill:url(#SVGID_00000000923415199357392380000014615662600535399312_);enable-background:new    ;" d="
	M86.7,71.3c-0.5-4-7.9-9.6-14.1-4c-4.6,4.2-2.7,15.3,5.2,14c8.3-1.4,6.9-6.5,7.9-9.3C86,71,86.7,71.8,86.7,71.3L86.7,71.3z"/>
<radialGradient id="SVGID_00000011724815139657064630000003904802261662948022_" cx="-173.2626" cy="571.2291" r="1" gradientTransform="matrix(100.727 0 0 -100.718 17589.4805 57629.2539)" gradientUnits="userSpaceOnUse">
	<stop  offset="0.14" style="stop-color:#FFD569"/>
	<stop  offset="0.35" style="stop-color:#FFB652"/>
	<stop  offset="0.68" style="stop-color:#FF8932"/>
	<stop  offset="0.85" style="stop-color:#FF7826"/>
</radialGradient>
<path style="fill:url(#SVGID_00000011724815139657064630000003904802261662948022_);" d="M158.1,76.1c-3-2.9-6-4.6-7.6-5.7
	c-8.3-6.1-55.6-5.5-63.2,0c-1.6,1.2-4.6,2.8-7.6,5.7C50.9,104,60,174.6,119,173.7C176.6,172.7,187,104,158.1,76.1L158.1,76.1z"/>
<radialGradient id="SVGID_00000004533720351532402380000008777160154451654803_" cx="-172.5501" cy="569.4321" r="1" gradientTransform="matrix(62.7474 -4.7726 -4.7722 -62.7414 13665.2666 35013.2812)" gradientUnits="userSpaceOnUse">
	<stop  offset="0.14" style="stop-color:#FFD569"/>
	<stop  offset="0.3" style="stop-color:#FFB652"/>
	<stop  offset="0.55" style="stop-color:#FF8932"/>
	<stop  offset="0.67" style="stop-color:#FF7826"/>
</radialGradient>
<path style="fill:url(#SVGID_00000004533720351532402380000008777160154451654803_);" d="M133.6,59c-0.3,0-3.3,0.4-3.3,0.6
	c-1.3,11.4-3,22-4.4,33.4c-1.9-11.6-2.2-22.5-2.1-34.2c-0.9-0.2-3.6-1.8-3.5,1.2c0.3,5.5-0.3,21.3-1.8,33.1
	c-2.6-9.9-4.1-21.8-3.8-32.7c-2.8,0.2-3.4-3.7-3.3-0.5c0.2,4.5-0.4,24.9-1.5,34.2c-1.1-13.6-4.5-23-5.2-35c-0.5,0.2-2.8,0.3-2.8-0.2
	c0.2,4.3,4,62.4-0.5,62.9c11.3-1.2,20.4-0.5,31.7-1.7C128,89.9,133.5,63.8,133.6,59L133.6,59z"/>
<linearGradient id="SVGID_00000126297262065936002880000017505012219689401489_" gradientUnits="userSpaceOnUse" x1="181.2356" y1="241.6341" x2="96.8561" y2="175.3073" gradientTransform="matrix(1 0 0 -1 0 305.89)">
	<stop  offset="0.36" style="stop-color:#FFFFFF"/>
	<stop  offset="0.42" style="stop-color:#F6EDEE"/>
	<stop  offset="0.55" style="stop-color:#DFC1C2"/>
	<stop  offset="0.72" style="stop-color:#BB797B"/>
	<stop  offset="0.94" style="stop-color:#89171B"/>
	<stop  offset="0.98" style="stop-color:#7F0206"/>
</linearGradient>
<path style="opacity:0.51;fill:url(#SVGID_00000126297262065936002880000017505012219689401489_);enable-background:new    ;" d="
	M132.6,89c-2.6,5.7-1.8,12.8,4.1,16.2c5.8,3.3,13.9,1.1,16.8-5c3-6.2-0.2-14.4-7.5-16.3c-3.2-0.8-7.6-2.2-10,0.1
	C134.6,85.5,133.5,87.2,132.6,89L132.6,89z"/>
<linearGradient id="SVGID_00000063597185647750829630000005920072664498786985_" gradientUnits="userSpaceOnUse" x1="114.2402" y1="243.541" x2="56.6398" y2="171.9234" gradientTransform="matrix(1 0 0 -1 0 305.89)">
	<stop  offset="0.36" style="stop-color:#FFFFFF"/>
	<stop  offset="0.42" style="stop-color:#F6EDEE"/>
	<stop  offset="0.55" style="stop-color:#DFC1C2"/>
	<stop  offset="0.72" style="stop-color:#BB797B"/>
	<stop  offset="0.94" style="stop-color:#89171B"/>
	<stop  offset="0.98" style="stop-color:#7F0206"/>
</linearGradient>
<path style="opacity:0.51;fill:url(#SVGID_00000063597185647750829630000005920072664498786985_);enable-background:new    ;" d="
	M78.2,88.6c-2.8,4.5-3.6,10.2-0.4,14.4c9.7,12.9,30.2-4.4,20.6-17.1c-2.8-3.8-7.3-5.4-11.9-4.1C83.2,82.8,80.2,85.4,78.2,88.6
	L78.2,88.6z"/>
<radialGradient id="SVGID_00000132767326269708817510000016988155913616403841_" cx="-171.1614" cy="568.0109" r="1" gradientTransform="matrix(45.5896 0 0 -45.5853 7927.4229 26005.2734)" gradientUnits="userSpaceOnUse">
	<stop  offset="0.38" style="stop-color:#FFD569"/>
	<stop  offset="0.5" style="stop-color:#FFB652"/>
	<stop  offset="0.7" style="stop-color:#FF8932"/>
	<stop  offset="0.81" style="stop-color:#FF7826"/>
</radialGradient>
<path style="fill:url(#SVGID_00000132767326269708817510000016988155913616403841_);" d="M99.3,136.3c9.7,10.8,30.2,7.9,36.2-3.5
	c6-11.4,3-22.7-5.9-28.9c-9-6.3-27.3-5-33.7,7.7C92.2,119.2,92.6,128.8,99.3,136.3L99.3,136.3z"/>
<path class="st28" d="M125.2,121.9c-2.4,2.2-5.5,4.2-8.8,4.1c0,0-0.1-10.6-0.1-10.6c0-0.2-0.6,0.6-0.6,0.9c0,1.7,0,8.3,0.1,9.8
	c-1.6-0.1-3.2-0.5-4.6-1.2c-0.4-0.2-0.7,0.4-0.3,0.6c5.4,2.8,11.1,0.6,14.9-3.1C126.1,121.9,125.7,121.5,125.2,121.9L125.2,121.9z"
	/>
<linearGradient id="SVGID_00000122703249256078547550000012200219113756297870_" gradientUnits="userSpaceOnUse" x1="119.9541" y1="240.0588" x2="109.2291" y2="131.2273" gradientTransform="matrix(1 0 0 -1 0 305.89)">
	<stop  offset="0.1" style="stop-color:#F19D70"/>
	<stop  offset="0.27" style="stop-color:#862E0C"/>
	<stop  offset="0.35" style="stop-color:#5C200A"/>
	<stop  offset="0.46" style="stop-color:#2D1207"/>
	<stop  offset="0.54" style="stop-color:#100906"/>
	<stop  offset="0.59" style="stop-color:#060606"/>
</linearGradient>
<path style="fill:url(#SVGID_00000122703249256078547550000012200219113756297870_);" d="M127.2,106.5c0.6-4-14.7-4.8-19.7-2.7
	c-1.1,0.4-3,1.5-2.8,2.7c-0.5,3.6,9.3,4,11.1,11.7c0.1-0.3,0.4-0.3,0.5,0c0-0.2,0.6-2.4,2.2-4.3
	C121.7,110.2,127.6,109.4,127.2,106.5L127.2,106.5z"/>
<radialGradient id="SVGID_00000029727846296238314830000002834587804203257998_" cx="-169.0227" cy="564.7353" r="1" gradientTransform="matrix(29.2774 0 0 -29.2746 5100.8906 16618.4512)" gradientUnits="userSpaceOnUse">
	<stop  offset="0.36" style="stop-color:#FFFFFF"/>
	<stop  offset="0.44" style="stop-color:#FEFCFA"/>
	<stop  offset="0.53" style="stop-color:#FEF4EE"/>
	<stop  offset="0.61" style="stop-color:#FDE7DA"/>
	<stop  offset="0.7" style="stop-color:#FCD4BD"/>
	<stop  offset="0.79" style="stop-color:#FBBD98"/>
	<stop  offset="0.87" style="stop-color:#F9A06B"/>
	<stop  offset="0.89" style="stop-color:#F99960"/>
</radialGradient>
<path style="fill:url(#SVGID_00000029727846296238314830000002834587804203257998_);" d="M142.6,105.4c12.4,2.8,16.9-13.7,8.2-20.9
	c-4.6-3.8-12-4-15.6,1.2C130.5,92.5,134.6,103.6,142.6,105.4L142.6,105.4z"/>
<radialGradient id="SVGID_00000144298926583080201010000011952607957331761561_" cx="-169.8719" cy="566.036" r="1" gradientTransform="matrix(34.126 0 0 -34.1227 5898.397 19400.043)" gradientUnits="userSpaceOnUse">
	<stop  offset="0.51" style="stop-color:#FFFFFF"/>
	<stop  offset="0.56" style="stop-color:#FEFCFA"/>
	<stop  offset="0.61" style="stop-color:#FEF4EE"/>
	<stop  offset="0.67" style="stop-color:#FDE7DA"/>
	<stop  offset="0.72" style="stop-color:#FCD4BD"/>
	<stop  offset="0.77" style="stop-color:#FBBD98"/>
	<stop  offset="0.82" style="stop-color:#F9A06B"/>
	<stop  offset="0.84" style="stop-color:#F99960"/>
</radialGradient>
<path style="fill:url(#SVGID_00000144298926583080201010000011952607957331761561_);" d="M91,105.4c-12.4,2.8-16.9-13.7-8.2-20.9
	c4.6-3.8,12-4,15.6,1.2C103.2,92.5,99.1,103.6,91,105.4L91,105.4z"/>
<linearGradient id="SVGID_00000175302016237966251850000016544269791643560598_" gradientUnits="userSpaceOnUse" x1="146.4488" y1="216.1419" x2="138.8388" y2="203.9061" gradientTransform="matrix(1 0 0 -1 0 305.89)">
	<stop  offset="0.1" style="stop-color:#F19D70"/>
	<stop  offset="0.27" style="stop-color:#862E0C"/>
	<stop  offset="0.35" style="stop-color:#5C200A"/>
	<stop  offset="0.46" style="stop-color:#2D1207"/>
	<stop  offset="0.54" style="stop-color:#100906"/>
	<stop  offset="0.59" style="stop-color:#060606"/>
</linearGradient>
<path style="fill:url(#SVGID_00000175302016237966251850000016544269791643560598_);" d="M145.8,94.5c-0.2-1.4-1.3-2.2-2.7-2.2
	c-1.3,0-2.4,1.5-2.2,2.7c0.2,1.4,1.3,2.2,2.7,2.2C144.8,97.2,145.9,95.8,145.8,94.5z"/>
<path class="st33" d="M144.7,93.4c-0.1-0.2-0.4-0.3-0.6-0.2c-0.8,0.2,0.1,1.4,0.6,0.8C144.9,93.7,144.8,93.5,144.7,93.4z"/>
<path class="st33" d="M143.1,95.7C143.2,95.7,143.2,95.6,143.1,95.7c0-0.1,0-0.1,0-0.2c0,0-0.1-0.1-0.1-0.1c0,0-0.1,0-0.1,0
	c0,0-0.1,0.1-0.1,0.1c0,0,0,0.1,0,0.1c0,0,0,0.1,0,0.1c0,0,0.1,0,0.1,0C143.1,95.8,143.1,95.8,143.1,95.7L143.1,95.7
	C143.1,95.7,143.1,95.7,143.1,95.7L143.1,95.7z"/>
<linearGradient id="SVGID_00000173149727113237079200000004502080271995927945_" gradientUnits="userSpaceOnUse" x1="93.6502" y1="216.1427" x2="86.0407" y2="203.9069" gradientTransform="matrix(1 0 0 -1 0 305.89)">
	<stop  offset="0.1" style="stop-color:#F19D70"/>
	<stop  offset="0.27" style="stop-color:#862E0C"/>
	<stop  offset="0.35" style="stop-color:#5C200A"/>
	<stop  offset="0.46" style="stop-color:#2D1207"/>
	<stop  offset="0.54" style="stop-color:#100906"/>
	<stop  offset="0.59" style="stop-color:#060606"/>
</linearGradient>
<path style="fill:url(#SVGID_00000173149727113237079200000004502080271995927945_);" d="M93,94.5c-0.2-1.4-1.3-2.2-2.7-2.2
	c-1.3,0-2.4,1.5-2.2,2.7c0.2,1.4,1.3,2.2,2.7,2.2C92,97.2,93.1,95.8,93,94.5z"/>
<path class="st33" d="M91.9,93.4c-0.1-0.2-0.4-0.3-0.6-0.2c-0.8,0.2,0.1,1.4,0.6,0.8C92.1,93.7,92,93.5,91.9,93.4L91.9,93.4z"/>
<path class="st33" d="M90.3,95.7C90.4,95.7,90.4,95.6,90.3,95.7c0-0.1,0-0.1,0-0.2c0,0-0.1-0.1-0.1-0.1c0,0-0.1,0-0.1,0
	c0,0-0.1,0.1-0.1,0.1c0,0,0,0.1,0,0.1c0,0,0,0.1,0,0.1c0,0,0.1,0,0.1,0C90.3,95.8,90.3,95.8,90.3,95.7L90.3,95.7
	C90.3,95.7,90.3,95.7,90.3,95.7L90.3,95.7z"/>
<radialGradient id="SVGID_00000111163646601006292000000010115250925639736734_" cx="-168.0418" cy="563.233" r="1" gradientTransform="matrix(25.1501 0 0 -25.1477 4381.9448 14285.6504)" gradientUnits="userSpaceOnUse">
	<stop  offset="8.000000e-02" style="stop-color:#FF26B4"/>
	<stop  offset="0.19" style="stop-color:#FF5AC6"/>
	<stop  offset="0.38" style="stop-color:#FFB2E4"/>
	<stop  offset="0.52" style="stop-color:#FFE9F7"/>
	<stop  offset="0.59" style="stop-color:#FFFFFF"/>
</radialGradient>
<path style="opacity:0.3;fill:url(#SVGID_00000111163646601006292000000010115250925639736734_);enable-background:new    ;" d="
	M152.7,105.6c-28,6.4-4.1,46.9,14.4,28.3c7-7.1,3.5-24.8-6.3-28C158.3,105,155.5,105,152.7,105.6L152.7,105.6z"/>
<radialGradient id="SVGID_00000075849790135034667470000016786548277895814820_" cx="-181.9582" cy="584.5471" r="1" gradientTransform="matrix(-25.1501 0 0 25.1477 -4496.4751 -14577.0508)" gradientUnits="userSpaceOnUse">
	<stop  offset="3.000000e-02" style="stop-color:#FF26B4"/>
	<stop  offset="0.14" style="stop-color:#FF5AC6"/>
	<stop  offset="0.34" style="stop-color:#FFB2E4"/>
	<stop  offset="0.48" style="stop-color:#FFE9F7"/>
	<stop  offset="0.55" style="stop-color:#FFFFFF"/>
</radialGradient>
<path style="opacity:0.3;fill:url(#SVGID_00000075849790135034667470000016786548277895814820_);enable-background:new    ;" d="
	M82.4,106.6c28,6.4,4.1,46.9-14.4,28.3c-7-7.1-3.5-24.8,6.3-28C76.8,106,79.7,106,82.4,106.6L82.4,106.6z"/>
<path class="st33" d="M107.9,115.9c-0.7,0-0.6,1,0,1C108.6,116.9,108.5,115.9,107.9,115.9z"/>
<path class="st33" d="M110.4,120.6c-0.7,0-0.6,1,0,1C111.1,121.6,111.1,120.6,110.4,120.6z"/>
<path class="st33" d="M105.1,120.8c-0.7,0-0.6,1,0,1C105.8,121.8,105.8,120.8,105.1,120.8z"/>
<path class="st33" d="M102,115.9c-0.7,0-0.6,1,0,1C102.7,116.9,102.7,115.9,102,115.9z"/>
<path class="st33" d="M99.4,120.8c-0.7,0-0.6,1,0,1C100.1,121.8,100,120.8,99.4,120.8z"/>
<path class="st33" d="M125.2,115.9c0.7,0,0.6,1,0,1C124.5,116.9,124.5,115.9,125.2,115.9z"/>
<path class="st33" d="M122.7,120.6c0.7,0,0.6,1,0,1C122,121.6,122,120.6,122.7,120.6z"/>
<path class="st33" d="M127.9,120.8c0.7,0,0.6,1,0,1C127.2,121.8,127.3,120.8,127.9,120.8z"/>
<path class="st33" d="M131,115.9c0.7,0,0.6,1,0,1C130.4,116.9,130.4,115.9,131,115.9z"/>
<path class="st33" d="M133.7,120.8c0.7,0,0.6,1,0,1C133,121.8,133,120.8,133.7,120.8z"/>
<path class="st37" d="M124.7,105.8c-0.8,0.5-1.7,1-2.4,1.7c-0.2,0.2,0.2,0.7,0.4,0.6c0.9-0.3,1.7-1,2.5-1.6
	C125.4,106.3,125,105.6,124.7,105.8L124.7,105.8z"/>
</svg>
